<svg height="97.239" viewBox="0 0 97.239 97.239" width="97.239" xmlns="http://www.w3.org/2000/svg" xmlns:xlink="http://www.w3.org/1999/xlink"><clipPath id="a"><path d="m0 0h97.239v97.239h-97.239z"/></clipPath><g clip-path="url(#a)" fill="#fff"><path d="m0 0h16.774v16.774h-16.774z" transform="translate(0 20.189)"/><path d="m0 0h16.774v16.774h-16.774z" transform="translate(20.185)"/><path d="m0 0h16.774v16.774h-16.774z" transform="translate(60.276)"/><path d="m0 0h16.774v16.774h-16.774z" transform="translate(20.185 60.559)"/><path d="m0 0h16.774v16.774h-16.774z" transform="translate(40.374 60.559)"/><path d="m0 0h16.774v16.774h-16.774z" transform="translate(40.374 80.462)"/><path d="m0 0h16.774v16.774h-16.774z" transform="translate(60.276 60.559)"/><path d="m0 0h16.774v16.774h-16.774z" transform="translate(80.462 20.189)"/><path d="m59.23 59.23v16.777h2.277v-5.688h11.655v5.688h2.846v-16.777zm13.932 8.52h-11.655v-6.243h11.655z" transform="translate(-39.045 -39.045)"/><path d="m118.47 59.23v16.777h2.273v-5.688h14.5v-11.089zm13.93 8.52h-11.657v-6.243h11.657z" transform="translate(-78.096 -39.045)"/><path d="m176.87 59.23v16.777h2.273v-5.97h14.5v-10.807zm13.93 8.52h-11.657v-6.243h11.657z" transform="translate(-116.594 -39.045)"/><path d="m0 118.47v16.774h16.774v-2.844h-14.501v-13.93z" transform="translate(0 -78.096)"/><path d="m59.23 135.244h16.491v-16.774h-16.491zm13.932-2.844h-11.655v-11.364h11.655z" transform="translate(-39.045 -78.096)"/><path d="m126.567 131.833-6.942-13.363h-1.155v4.55l6.363 12.224h3.759l6.652-13.08v-3.694h-1.444l-6.942 13.363z" transform="translate(-78.096 -78.096)"/><path d="m176.87 135.244h16.774v-2.844h-14.215v-4.832h14.215v-2.558h-14.215v-3.98h14.215v-2.56h-16.774z" transform="translate(-116.594 -78.096)"/><path d="m238.377 120.46h11.662v6.254h-11.656zm-2.277-1.99v16.774h2.277v-6.254h7.961l3.7 6.254h2.846l-3.7-6.254h3.7v-10.52z" transform="translate(-155.638 -78.096)"/></g></svg>